<svg xmlns="http://www.w3.org/2000/svg" xmlns:xlink="http://www.w3.org/1999/xlink" viewBox="0 0 172.39 161.14"><defs><style>.cls-1{fill:url(#linear-gradient);}.cls-2{fill:url(#linear-gradient-2);}.cls-3{fill:url(#linear-gradient-3);}.cls-4{fill:url(#linear-gradient-4);}.cls-5{fill:url(#linear-gradient-5);}</style><linearGradient id="linear-gradient" x1="88.41" y1="142.06" x2="88.41" y2="20.82" gradientUnits="userSpaceOnUse"><stop offset="0" stop-color="#a56aff"/><stop offset="0.46" stop-color="#60d9e9"/><stop offset="0.99" stop-color="#005a9d"/></linearGradient><linearGradient id="linear-gradient-2" x1="86.19" y1="-11.65" x2="86.19" y2="184.9" xlink:href="#linear-gradient"/><linearGradient id="linear-gradient-3" x1="118.07" y1="33.77" x2="118.07" y2="178.66" xlink:href="#linear-gradient"/><linearGradient id="linear-gradient-4" x1="78.26" y1="59.2" x2="78.26" y2="168.12" xlink:href="#linear-gradient"/><linearGradient id="linear-gradient-5" x1="39" y1="84.99" x2="39" y2="157.44" xlink:href="#linear-gradient"/></defs><title>Asset 2</title><g id="Layer_2" data-name="Layer 2"><g id="OBJECTS"><polygon class="cls-1" points="111.95 44.64 111.95 136.41 104.32 136.41 104.32 66.94 72.5 66.94 72.5 136.41 64.87 136.41 64.87 89.2 33.05 89.2 33.05 139.82 143.78 139.82 143.78 44.64 111.95 44.64"/><polygon class="cls-2" points="164.09 9.5 164.09 152.84 8.3 152.84 8.3 87.13 141.29 12.89 144.54 18 153.91 0 133.63 0.89 136.82 5.88 0 82.25 0 161.14 172.39 161.14 172.39 9.5 164.09 9.5"/><rect class="cls-3" x="114.62" y="47.23" width="6.9" height="88.99"/><rect class="cls-4" x="74.81" y="69.32" width="6.9" height="66.9"/><rect class="cls-5" x="35.55" y="91.72" width="6.9" height="44.5"/></g></g></svg>