<svg xmlns="http://www.w3.org/2000/svg" xmlns:xlink="http://www.w3.org/1999/xlink" viewBox="0 0 339.16 68.91"><defs><style>.cls-1{fill:url(#linear-gradient);}.cls-2{fill:url(#linear-gradient-2);}.cls-3{fill:url(#linear-gradient-3);}.cls-4{fill:url(#linear-gradient-4);}.cls-5{fill:url(#linear-gradient-5);}.cls-6{font-size:40px;fill:#fff;font-family:GillSansMT, Gill Sans MT;}.cls-7{letter-spacing:-0.04em;}</style><linearGradient id="linear-gradient" x1="37.81" y1="60.75" x2="37.81" y2="8.9" gradientUnits="userSpaceOnUse"><stop offset="0" stop-color="#a56aff"/><stop offset="0.46" stop-color="#60d9e9"/><stop offset="0.99" stop-color="#005a9d"/></linearGradient><linearGradient id="linear-gradient-2" x1="36.86" y1="-4.98" x2="36.86" y2="79.07" xlink:href="#linear-gradient"/><linearGradient id="linear-gradient-3" x1="50.49" y1="14.44" x2="50.49" y2="76.4" xlink:href="#linear-gradient"/><linearGradient id="linear-gradient-4" x1="33.47" y1="25.32" x2="33.47" y2="71.9" xlink:href="#linear-gradient"/><linearGradient id="linear-gradient-5" x1="16.68" y1="36.35" x2="16.68" y2="67.33" xlink:href="#linear-gradient"/></defs><title>Asset 3</title><g id="Layer_2" data-name="Layer 2"><g id="OBJECTS"><polygon class="cls-1" points="47.88 19.09 47.88 58.33 44.61 58.33 44.61 28.63 31 28.63 31 58.33 27.74 58.33 27.74 38.15 14.13 38.15 14.13 59.79 61.48 59.79 61.48 19.09 47.88 19.09"/><polygon class="cls-2" points="70.17 4.06 70.17 65.36 3.55 65.36 3.55 37.26 60.42 5.51 61.81 7.7 65.82 0 57.15 0.38 58.51 2.52 0 35.17 0 68.91 73.72 68.91 73.72 4.06 70.17 4.06"/><rect class="cls-3" x="49.02" y="20.2" width="2.95" height="38.06"/><rect class="cls-4" x="31.99" y="29.64" width="2.95" height="28.61"/><rect class="cls-5" x="15.2" y="39.22" width="2.95" height="19.03"/><text class="cls-6" transform="translate(88.01 45.63)">IN<tspan class="cls-7" x="41.23" y="0">V</tspan><tspan x="63.79" y="0">OICE EASE</tspan></text></g></g></svg>